# AST/ASF file generated using VICON BodyLanguage
# -----------------------------------------------
:version 1.10
:name VICON
:units
  mass 1.0
  length 0.45
  angle deg
:documentation
   .ast/.asf automatically generated from VICON data using
   VICON BodyBuilder and BodyLanguage model FoxedUp or BRILLIANT.MOD
:root
   order TX TY TZ RX RY RZ
   axis XYZ
   position 0 0 0  
   orientation 0 0 0 
:bonedata
  begin
     id 1 
     name lhipjoint
     direction 0.577973 -0.728611 0.367523 
     length 2.48544 
     axis 0 0 0  XYZ
  end
  begin
     id 2 
     name lfemur
     direction 0.34202 -0.939693 0  
     length 7.1921  
     axis 0 0 20  XYZ
    dof rx ry rz
    limits (-160.0 20.0)
           (-70.0 70.0)
           (-60.0 70.0)
  end
  begin
     id 3 
     name ltibia
     direction 0.34202 -0.939693 0   
     length 7.71059   
     axis 0 0 20   XYZ
    dof rx
    limits (-10.0 170.0)
  end
  begin
     id 4 
     name lfoot
     direction 0.089538 -0.246004 0.965124   
     length 2.19909   
     axis -90 7.62852e-016 20   XYZ
    dof rx rz
    limits (-45.0 90.0)
           (-70.0 20.0)
  end
  begin
     id 5 
     name ltoes
     direction 1.53544e-011 -4.21829e-011 1   
     length 1.10116   
     axis -90 7.62852e-016 20   XYZ
    dof rx
    limits (-90.0 20.0)
  end
  begin
     id 6 
     name rhipjoint
     direction -0.554414 -0.743062 0.374812   
     length 2.4371  
     axis 0 0 0  XYZ 
  end
  begin
     id 7 
     name rfemur
     direction -0.34202 -0.939693 0   
     length 7.47254   
     axis 0 0 -20   XYZ
    dof rx ry rz
    limits (-160.0 20.0)
           (-70.0 70.0)
           (-70.0 60.0)
  end
  begin
     id 8 
     name rtibia
     direction -0.34202 -0.939693 0   
     length 7.65855   
     axis 0 0 -20   XYZ
    dof rx
    limits (-10.0 170.0)
 end
 begin
     id 9 
     name rfoot
     direction -0.133779 -0.367555 0.92033   
     length 2.43006  
     axis -90 -7.62852e-016 -20   XYZ
    dof rx rz
    limits (-45.0 90.0)
           (-20.0 70.0)
  end
  begin
     id 10 
     name rtoes
     direction -1.53563e-011 -4.21889e-011 1   
     length 1.19625   
     axis -90 -7.62852e-016 -20   XYZ
    dof rx
    limits (-90.0 20.0)
  end
  begin
     id 11 
     name lowerback
     direction 0.0249066 0.998043 -0.0573585   
     length 2.08485   
     axis 0 0 0   XYZ
    dof rx ry rz
    limits (-20.0 45.0)
           (-30.0 30.0)
           (-30.0 30.0)
  end
  begin
     id 12 
     name upperback
     direction 0.0237884 0.999673 0.00943178   
     length 2.08515   
     axis 0 0 0   XYZ
    dof rx ry rz
    limits (-20.0 45.0)
           (-30.0 30.0)
           (-30.0 30.0)
  end
  begin
     id 13 
     name thorax
     direction 0.0106671 0.999301 0.0358174   
     length 2.09037   
     axis 0 0 0   XYZ
    dof rx ry rz
    limits (-20.0 45.0)
           (-30.0 30.0)
           (-30.0 30.0)
  end
  begin
     id 14 
     name lowerneck
     direction -0.0580016 0.987052 0.149546   
     length 1.84454   
     axis 0 0 0   XYZ
    dof rx ry rz
    limits (-20.0 45.0)
           (-30.0 30.0)
           (-30.0 30.0)
  end
  begin
     id 15 
     name upperneck
     direction 0.079456 0.981963 -0.171567   
     length 1.88141   
     axis 0 0 0   XYZ
    dof rx ry rz
    limits (-20.0 45.0)
           (-30.0 30.0)
           (-30.0 30.0)
  end
  begin
     id 16
     name head
     direction 0.0262167 0.9967 -0.0768276  
     length 1.89541  
     axis 0 0 0   XYZ
    dof rx ry rz
    limits (-20.0 45.0)
           (-30.0 30.0)
           (-30.0 30.0)
  end
  begin
     id 17 
     name lclavicle
     direction 0.946135 0.322134 -0.0325326  
     length 3.949  
     axis 0 0 0   XYZ
    dof ry rz
    limits (-20.0 10.0)
           (0.0 20.0)
  end
  begin
     id 18 
     name lhumerus
     direction 1 -4.48964e-011 1.94005e-028   
     length 5.10995   
     axis 180 -30 -90   XYZ
    dof rx ry rz
    limits (-60.0 90.0)
           (-90.0 90.0)
           (-90.0 90.0)
  end
  begin
     id 19
     name lradius
     direction 1 -4.48976e-011 2.87852e-027   
     length 3.21207   
     axis 180 -30 -90   XYZ
    dof rx
    limits (-10.0 170.0)
  end
  begin
     id 20
     name lwrist
     direction 1 -4.48963e-011 1.9975e-027   
     length 1.60604   
     axis 2.96054e-016 90 90   XYZ
    dof ry
    limits (-180.0 0.0)
 end
  begin
     id 21 
     name lhand
     direction 1 -4.48919e-011 4.00227e-027   
     length 0.63349   
     axis -2.5488e-015 90 90   XYZ
    dof rx rz
    limits (-90.0 90.0)
           (-45.0 45.0)
  end
  begin
     id 22 
     name lfingers
     direction 1 -4.49037e-011 7.9652e-027   
     length 0.510736   
     axis -5.0975e-015 90 90   XYZ
    dof rx
    limits (0.0 90.0)
  end
  begin
     id 23
     name lthumb
     direction 0.707107 -6.34922e-011 0.707107   
     length 0.733318   
     axis -90 45 -4.48553e-014   XYZ
    dof rx rz
    limits (-45.0 45.0)
           (-45.0 45.0)
  end
  begin
     id 24 
     name rclavicle
     direction -0.940085 0.328911 -0.0897654   
     length 3.93848  
     axis 0 0 0   XYZ 
    dof ry rz
    limits (-10.0 20.0)
           (-20.0 0.0)
  end
  begin
     id 25 
     name rhumerus
     direction -1 -4.48958e-011 3.02044e-027  
     length 5.25109   
     axis 180 30 90   XYZ
    dof rx ry rz
    limits (-90.0 60.0)
           (-90.0 90.0)
           (-90.0 90.0)
  end
  begin
     id 26 
     name rradius
     direction -1 -4.4897e-011 9.78352e-028   
     length 3.28364   
     axis 180 30 90   XYZ
    dof rx
    limits (-10.0 170.0)
  end
  begin
     id 27 
     name rwrist
     direction -1 -4.48943e-011 1.99918e-027   
     length 1.64182   
     axis 2.96054e-016 -90 -90   XYZ
    dof ry
    limits (-180.0 0.0)
  end
  begin
     id 28
     name rhand
     direction -1 -4.49024e-011 3.98478e-027   
     length 0.599745   
     axis -2.5488e-015 -90 -90   XYZ
    dof rx rz
    limits (-90.0 90.0)
           (-45.0 45.0)
  end
  begin
     id 29
     name rfingers
     direction -1 -4.48914e-011 8.00621e-027   
     length 0.48353   
     axis -5.0975e-015 -90 -90   XYZ
    dof rx
    limits (0.0 90.0)
  end
  begin
     id 30
     name rthumb
     direction -0.707107 -6.34992e-011 0.707107   
     length 0.694255   
     axis -90 -45 4.48553e-014   XYZ
    dof rx rz
    limits (-45.0 45.0)
           (-45.0 45.0)
  end
:hierarchy
  begin
    root lhipjoint rhipjoint lowerback
    lhipjoint lfemur
    lfemur ltibia
    ltibia lfoot
    lfoot ltoes
    rhipjoint rfemur
    rfemur rtibia
    rtibia rfoot
    rfoot rtoes
    lowerback upperback
    upperback thorax
    thorax lowerneck lclavicle rclavicle
    lowerneck upperneck
    upperneck head
    lclavicle lhumerus
    lhumerus lradius
    lradius lwrist
    lwrist lhand lthumb
    lhand lfingers
    rclavicle rhumerus
    rhumerus rradius
    rradius rwrist
    rwrist rhand rthumb
    rhand rfingers
  end

#!OML:ASF E:\CV Data\Top Level 1\Subject 1\Session 1\player.ASF
:FULLY-SPECIFIED
:DEGREES
1029
root 5.49933 17.4835 -4.2072 25.5325 -58.8818 -16.4031
lowerback 22.2118 -3.12577 5.56762
upperback 6.54569 -2.87491 5.6887
thorax -5.14893 -1.61343 3.76659
lowerneck -19.3942 12.755 -5.40439
upperneck 4.45547 18.4711 -2.60315
head 4.11582 8.81513 1.58458
rclavicle -7.73272e-014 -1.51076e-014
rhumerus 128.863 210.173 191.647
rradius 59.0407
rwrist -27.56
rhand -32.5806 17.5551
rfingers 7.12502
rthumb -5.80929 -12.3453
lclavicle -7.73272e-014 -1.51076e-014
lhumerus -49.8781 -14.135 21.7243
lradius 17.1648
lwrist -34.0997
lhand -5.03727 16.7377
lfingers 7.12502
lthumb 20.7576 45.6475
rfemur -15.4043 -5.40688 16.421
rtibia 37.8203
rfoot -10.3196 -16.6068
rtoes -20.3521
lfemur -57.0612 18.2885 -4.36572
ltibia 25.4514
lfoot -9.26507 23.1354
ltoes -13.4871
1030
root 5.48965 17.4128 -4.04876 25.6263 -58.4229 -16.187
lowerback 22.2758 -3.25106 5.78229
upperback 6.50978 -2.9738 5.80135
thorax -5.22046 -1.66298 3.80207
lowerneck -19.3508 12.8101 -5.43223
upperneck 4.35633 18.5632 -2.80336
head 4.09453 8.85162 1.53124
rclavicle 1.09332e-014 1.8487e-014
rhumerus 129.996 209.362 192.699
rradius 60.9051
rwrist -26.4206
rhand -32.5941 18.2136
rfingers 7.12502
rthumb -5.82235 -11.6865
lclavicle 1.09332e-014 1.8487e-014
lhumerus -51.5764 -11.4737 21.616
lradius 16.6303
lwrist -36.0486
lhand -5.51508 17.006
lfingers 7.12502
lthumb 20.2985 45.9653
rfemur -15.652 -5.29802 15.9239
rtibia 38.5666
rfoot -10.5783 -16.7478
rtoes -21.062
lfemur -56.642 18.3227 -4.06105
ltibia 25.2216
lfoot -9.0418 23.8973
ltoes -13.1083
1031
root 5.47977 17.3386 -3.88531 25.7552 -57.9413 -16.0069
lowerback 22.3159 -3.37781 6.03466
upperback 6.45673 -3.06526 5.93313
thorax -5.2995 -1.70918 3.83525
lowerneck -19.3173 12.8635 -5.45607
upperneck 4.31452 18.6564 -3.0051
head 4.09359 8.88585 1.48072
rclavicle 5.1684e-015 7.15625e-015
rhumerus 131.22 208.619 193.841
rradius 62.6897
rwrist -25.367
rhand -32.6552 18.9037
rfingers 7.12502
rthumb -5.88136 -10.9947
lclavicle 5.1684e-015 7.15625e-015
lhumerus -53.3468 -8.7313 21.4304
lradius 16.0413
lwrist -38.1478
lhand -6.05686 17.2069
lfingers 7.12502
lthumb 19.7777 46.2207
rfemur -15.8444 -5.19918 15.4329
rtibia 39.2419
rfoot -10.7855 -16.8585
rtoes -21.8271
lfemur -56.2113 18.3202 -3.73468
ltibia 24.9248
lfoot -8.69604 24.6971
ltoes -12.6881
1032
root 5.47031 17.2615 -3.71563 25.8982 -57.4086 -15.8291
lowerback 22.3172 -3.51399 6.34271
upperback 6.38175 -3.15657 6.08101
thorax -5.3845 -1.75542 3.85388
lowerneck -19.3047 12.9132 -5.47346
upperneck 4.34512 18.7482 -3.19113
head 4.11786 8.91668 1.43882
rclavicle 6.32135e-014 -9.54166e-014
rhumerus 132.528 207.989 195.085
rradius 64.3835
rwrist -24.4602
rhand -32.7168 19.5156
rfingers 7.12502
rthumb -5.94085 -10.3811
lclavicle 6.32135e-014 -9.54166e-014
lhumerus -55.1807 -5.93244 21.1517
lradius 15.4054
lwrist -40.4074
lhand -6.61505 17.2981
lfingers 7.12502
lthumb 19.241 46.3662
rfemur -16.0083 -5.1504 14.9402
rtibia 39.8946
rfoot -10.9615 -16.9418
rtoes -22.6424
lfemur -55.8339 18.2181 -3.38221
ltibia 24.6615
lfoot -8.25751 25.5814
ltoes -12.1954
1033
root 5.46212 17.1961 -3.5411 26.0498 -56.8226 -15.649
lowerback 22.2835 -3.65406 6.69531
upperback 6.28025 -3.24202 6.24989
thorax -5.48202 -1.79915 3.86873
lowerneck -19.2945 12.9557 -5.48649
upperneck 4.42846 18.833 -3.36945
head 4.15911 8.94184 1.40095
rclavicle -1.96797e-014 -6.04305e-014
rhumerus 133.93 207.521 196.43
rradius 65.9611
rwrist -23.7286
rhand -32.7715 20.0792
rfingers 7.12502
rthumb -5.99358 -9.81602
lclavicle -1.96797e-014 -6.04305e-014
lhumerus -57.0904 -3.06757 20.7306
lradius 14.7466
lwrist -42.8536
lhand -7.063 17.2413
lfingers 7.12502
lthumb 18.8102 46.3519
rfemur -16.131 -5.14245 14.4662
rtibia 40.49
rfoot -11.0694 -17.0283
rtoes -23.5113
lfemur -55.4951 18.0583 -3.07362
ltibia 24.4289
lfoot -7.74086 26.5021
ltoes -11.5793
1034
root 5.45308 17.1152 -3.35869 26.1852 -56.1803 -15.4402
lowerback 22.2109 -3.78458 7.09152
upperback 6.15273 -3.30542 6.42946
thorax -5.59045 -1.83246 3.86436
lowerneck -19.2939 12.985 -5.45912
upperneck 4.57452 18.8963 -3.54473
head 4.22546 8.95369 1.36131
rclavicle 2.32578e-014 -5.1684e-015
rhumerus 135.375 207.275 197.895
rradius 67.4067
rwrist -23.1666
rhand -32.779 20.5919
rfingers 7.12502
rthumb -6.00084 -9.30315
lclavicle 2.32578e-014 -5.1684e-015
lhumerus -59.0491 -0.14294 20.1094
lradius 14.1035
lwrist -45.5131
lhand -7.37503 17.0267
lfingers 7.12502
lthumb 18.5101 46.166
rfemur -16.231 -5.19122 13.9638
rtibia 41.0949
rfoot -11.1294 -17.1043
rtoes -24.4541
lfemur -55.3048 17.8798 -2.85097
ltibia 24.2864
lfoot -7.1182 27.4096
ltoes -10.8603
1035
root 5.44405 17.0335 -3.17007 26.2868 -55.4923 -15.1943
lowerback 22.1151 -3.8994 7.49935
upperback 5.997 -3.34382 6.62579
thorax -5.71832 -1.8542 3.866
lowerneck -19.2756 13.0066 -5.39796
upperneck 4.75944 18.9448 -3.7243
head 4.30537 8.95661 1.31614
rclavicle -3.77691e-014 2.38542e-014
rhumerus 136.895 207.286 199.441
rradius 68.6702
rwrist -22.6911
rhand -32.8119 21.1345
rfingers 7.12502
rthumb -6.03257 -8.75961
lclavicle -3.77691e-014 2.38542e-014
lhumerus -61.1142 2.88627 19.1884
lradius 13.5109
lwrist -48.3883
lhand -7.52755 16.6161
lfingers 7.12502
lthumb 18.3634 45.7693
rfemur -16.2864 -5.2722 13.4431
rtibia 41.6736
rfoot -11.1123 -17.1967
rtoes -25.4608
lfemur -55.2388 17.7701 -2.82362
ltibia 24.2238
lfoot -6.44829 28.1932
ltoes -9.98778
